<svg version="1.1" id="Layer_1" xmlns="http://www.w3.org/2000/svg" xmlns:xlink="http://www.w3.org/1999/xlink" x="0px" y="0px" viewBox="0 0 358.3 48" style="enable-background:new 0 0 358.3 48;" xml:space="preserve">
 <style type="text/css">
  .st0{clip-path:url(#SVGID_2_);fill:url(#SVGID_3_);}
 </style>
 <g>
  <g>
   <defs>
    <path id="SVGID_1_" d="M73.2,9.6h18.9c4.4,0,7.3,2.1,7.3,5.9c0,3.9-2.9,5.9-7.3,5.9H73.2V9.6z M63,0.6v46.7h10.2V30.4h8.3
				c4.1,0,6,0.3,8,3.3l9,13.6h12L98.1,29c7.3-1.4,11.6-6,11.6-14.1c0-9.1-5.8-14.3-16.9-14.3H63z M153,0.6L141.2,16
				c-2.2,2.8-3.7,3.4-7.6,3.4h-5.5V0.6h-10.1v46.7h10.1V28.6h5.5c3.9,0,5.4,0.6,7.6,3.5L153,47.4h12L147.2,24l17.8-23.4H153z
				 M189.2,0.6c-15.3,0-23.6,7-23.6,23.3c0,16.3,8.3,23.4,23.6,23.4h22.9v-9.2h-21.7c-9.5,0-13.6-3.5-13.8-9.7h35.5v-9.2h-35.5
				c0.3-6.1,4.4-9.5,13.8-9.5h21.7V0.6H189.2z M25.7,12.3c0.9-1.9,1.6-2.4,2.7-2.4c0.3,0,0.5,0,0.7,0.1c0.7,0.2,1.3,0.8,2,2.3
				l5.3,12.5h-16L25.7,12.3z M16.5,9.3L0,47.3h0h10.8l5.7-13.5h23.7L46,47.3h10.8L40.2,9.3c-1.8-4.2-4.3-7.7-8.6-8.9
				c-1-0.3-2.1-0.4-3.3-0.4C21.9,0,18.7,4.2,16.5,9.3 M327.3,12.3c0.9-1.9,1.6-2.4,2.7-2.4c0.7,0,1.2,0.2,1.7,0.8
				c0.1,0.1,0.1,0.2,0.2,0.3c0.1,0.2,0.2,0.4,0.4,0.6c0.1,0.1,0.1,0.2,0.1,0.3c0.1,0.2,0.2,0.3,0.2,0.5l5.3,12.5h-16L327.3,12.3z
				 M318.1,9.3l-11.8,27.1c-0.4,1.1-1,1.7-1.9,1.7c-1,0-1.6-0.5-1.9-1.7l-7.7-26.5C294,7,292.7,4.8,291,3.1
				c-0.7-0.7-1.4-1.2-2.2-1.7c0,0-0.1,0-0.1-0.1C286.9,0.5,285,0,283,0c-5.3,0-9.3,3.2-11.3,9.8l-7.9,25.7c-0.3,1.2-1.2,1.7-2.1,1.7
				c-0.3,0-0.6-0.1-0.9-0.2c-0.5-0.3-0.9-0.8-1.1-1.5l-7.9-25.7c-0.9-2.9-2.1-5.1-3.7-6.7c0,0-0.1-0.1-0.1-0.1
				c-0.3-0.3-0.6-0.6-0.9-0.8c-1.8-1.5-4-2.2-6.6-2.2c-5.4,0-9.8,3.3-11.8,9.8l-11.2,37.5h11l9.9-35.2c0.3-1.2,1.2-1.7,2.1-1.7
				c0.3,0,0.6,0.1,0.9,0.2c0.5,0.3,0.9,0.8,1.1,1.5l7.9,26c2,6.6,6.3,9.8,11.3,9.8c5.1,0,9.3-3.2,11.3-9.8l7.9-26
				c0.3-1.2,1.2-1.7,2-1.7c0.3,0,0.6,0.1,0.9,0.2c0.5,0.3,0.9,0.8,1.1,1.5l7,25c1.1,3.8,2.5,6.5,4.5,8.2c0.1,0.1,0.1,0.1,0.2,0.1
				c2,1.7,4.5,2.4,7.7,2.4h0c5.5,0,9.1-3.3,12.2-10.7l1.5-3.4h23.7l5.7,13.5h10.8L341.8,9.3c-0.4-0.8-0.8-1.6-1.2-2.4
				c-0.1-0.2-0.3-0.5-0.4-0.7c-0.4-0.7-0.9-1.3-1.3-1.9c-0.1-0.1-0.1-0.1-0.2-0.2c-2.1-2.4-4.8-4-8.8-4C323.6,0,320.4,4.1,318.1,9.3
				">
    </path>
   </defs>
   <clipPath id="SVGID_2_">
    <use href="#SVGID_1_" style="overflow:visible;">
    </use>
   </clipPath>
   <linearGradient id="SVGID_3_" gradientUnits="userSpaceOnUse" x1="61.3734" y1="472.1642" x2="63.3208" y2="472.1642" gradientTransform="matrix(184.0151 0 0 -184.0365 -11293.626 86919.4688)">
    <stop offset="0" style="stop-color:#262C65">
    </stop>
    <stop offset="0.35" style="stop-color:#262C65">
    </stop>
    <stop offset="0.7" style="stop-color:#51BE9B">
    </stop>
    <stop offset="1" style="stop-color:#51BE9B">
    </stop>
   </linearGradient>
   <rect y="0" class="st0" width="358.3" height="48">
   </rect>
  </g>
 </g>
</svg>