<svg version="1.1" id="Layer_1" xmlns="http://www.w3.org/2000/svg" xmlns:xlink="http://www.w3.org/1999/xlink" x="0px" y="0px" viewBox="0 0 238 59.4" style="enable-background:new 0 0 238 59.4;" xml:space="preserve">
 <style type="text/css">
  .st0{fill:#ED1A3B;}
	.st1{fill:#FFFFFF;}
 </style>
 <g>
  <path class="st0" d="M184.3,25.6c7.2-7.9,15.1-9.5,21.7-15.6c4.2-3.8,5.5-7.4,6.3-9.3c0.1-0.1,0.1-0.2,0.1-0.3
		c-0.1-0.1-0.2-0.1-0.3-0.1c-1.7-0.3-4.5-0.4-6.7-0.2c-1.8,0.2-3.9,0.5-5.2,0.9c-0.1,0-0.2,0.1-0.3,0.1c-0.1,0.1-0.1,0.1-0.1,0.2
		c-1.1,3.9-7.3,8.3-8.8,9.5c-2.2,1.8-4.1,3.4-6,5.4c-1.6,1.7-3.2,3.7-4.3,5.7c-1.2,2-1.8,4.1-2.1,6.1c-0.3,1.7-0.3,3.3-0.2,4.5v0.4
		c0.2,1.8,0.5,2.6,0.5,2.7c0,0.2,0.1,0.3,0.2,0.3s0.1-0.2,0.2-0.3c0-0.1,0.2-0.8,0.4-1.4c0.2-0.7,0.3-1,0.5-1.7
		C180.7,30.8,181.8,28.3,184.3,25.6L184.3,25.6z M237.8,26.6c0-0.1,0-0.3-0.1-0.3c-0.1-0.1-0.1-0.1-0.3-0.1
		c-1.8-0.1-3.8-0.2-6.1-0.2c-12.9,0.2-29.3,3.4-36.6,10.5c-3.4,3.3-5.1,7.6-3.8,12.9c1.4,6,6.4,8.7,9.6,9.6c1.6,0.4,2.8,0.3,2.8,0.3
		s0.2,0,0.2-0.1s-0.2-0.2-0.2-0.2s-0.6-0.5-0.9-0.8c-0.3-0.4-0.5-0.6-0.8-1c-0.5-0.7-1-1.7-1.4-3.1c-0.8-3,0.1-5.7,2.2-8
		c3.6-3.8,11.7-6.3,25.7-6.3l7.7,0.1c0,0,0.2,0,0.3-0.1s0.1-0.1,0.2-0.3c0.5-1.3,1.1-3.7,1.4-6.6C238.1,31,238,28.8,237.8,26.6
		L237.8,26.6z">
  </path>
  <path class="st0" d="M215,24.9c9.7-1.1,17-1.2,22.1-0.6h0.3V24c-0.5-2.7-1.7-6-3.1-8.5c-0.3-0.6-0.8-1.4-1.2-2
		c-0.1-0.2-0.1-0.1-0.2-0.2s-0.4-0.1-0.4-0.1c-0.8-0.1-2.7-0.2-5-0.2c-4-0.1-8.9,0.4-14.4,1.5c-8.1,1.6-15.1,4.3-20.8,8
		c-6.1,4-10.7,8.5-12.4,15.7c-0.3,1.1,0.4,3.2,1.2,4.8c0.5,1,1,1.8,1.5,2.5l0.2,0.2c0.1,0,0.1-0.1,0.1-0.2c0.1-0.5,0.2-1.5,0.8-2.9
		c0.9-2.6,3.1-8,12.4-12.4C202.2,27.1,208.8,25.7,215,24.9L215,24.9z">
  </path>
  <path class="st1" d="M232.2,28.4h-2.7v3.1h-3.1v2.7h3.1v3.1h2.7v-3.1h3.1v-2.7h-3.1V28.4z">
  </path>
  <path d="M51.8,40h-6.4C45,40,45,40.2,45,40.6c0,0.5,0,0.5,0.6,0.5c1,0,2.1,0.2,2.1,1.4c0,0.8-0.7,2.5-1.2,3.7
		c-0.9,2.1-2.5,5.5-3.8,8.4c-0.8-2.4-3.8-11.3-3.8-12.1c0-1.1,0.8-1.1,2.1-1.2c0.5-0.1,0.6-0.1,0.6-0.7c0-0.4,0-0.6-0.5-0.6h-8.3
		c-0.4,0-0.5,0.2-0.5,0.6c0,0.3,0,0.4,0.3,0.5c0.8,0.1,1.1,0.2,1.5,0.6c0.4,0.5,1,2,1.8,4.1c-0.9,2-3.4,7.2-4.2,8.8
		c-1.5-3.7-2.2-5.6-2.9-7.4c-0.7-1.9-1.4-3.9-1.4-4.7s0.4-1.2,1.8-1.3c0.5,0,0.6-0.1,0.6-0.6c0-0.3,0-0.6-0.2-0.6h-7.9
		c-0.4,0-0.5,0.1-0.5,0.5c0,0.5,0,0.5,0.6,0.8c0.4,0.2,0.8,0.8,1.5,2.2c1.7,3.6,4.2,10.4,5.8,14.8c0.3,0.7,0.3,0.8,0.5,0.8l1.6-0.2
		c0.3,0,0.3,0,0.5-0.5c1.4-3.1,2.1-4.5,5.1-10.4c1.6,4.4,2.8,8.2,3.3,10.1c0.3,1,0.3,1.1,0.6,1l1.1-0.1c0.4,0,0.7-0.2,0.9-0.6
		c0.1-0.3,0.8-1.8,1.1-2.5c1.4-3.1,3.2-7,4.3-9.1s2.7-5,3.7-5.5c0.3-0.2,0.4-0.3,0.4-0.7S52.1,40,51.8,40L51.8,40z M12.5,43
		c-5.2-2.3-7.3-3.2-7.3-6.5c0-3,2.3-4.9,5.3-4.9c1.6,0,3.2,0.4,4.3,1.2c1.5,1,2,2.4,2.4,3.7c0.2,0.7,0.3,0.8,0.5,0.8
		c0.4,0,1-0.1,1-0.6c0-0.2-0.1-1.5-0.2-2.4c-0.1-1.1,0-3.4,0-3.7c0-0.3,0-0.4-0.3-0.4h-0.4c-0.1,0.1-0.3,0.2-0.4,0.2
		s-1.1-0.1-2.3-0.3c-1.2-0.1-2.8-0.2-3.9-0.2c-6.4,0-9.8,3.3-9.8,7.8c0,1.4,0.4,3.2,1.9,4.7c1.3,1.3,2.6,1.9,6.1,3.5
		C14,48,16,49,16,52.1s-2.5,5.2-5.8,5.2c-2.4,0-4.5-0.7-6.1-1.8c-1.3-1.1-2.1-2.6-2.5-4.4c-0.1-0.4-0.1-0.7-0.4-0.7
		c-0.8,0-1.1,0.5-1.1,0.9c0,1.2,0.4,4.9,0.7,6.8c0.1,0.7,0.1,0.8,0.6,0.8s0.5-0.4,1.1-0.4c0.7,0,3.7,0.7,7.3,0.7c4.3,0,6.4-1,7.8-2
		c1.5-1.1,2.9-3.2,2.9-5.9C20.3,46.4,16.1,44.6,12.5,43z M63.1,57.7c-1.7-0.1-2.6-0.2-2.8-1.5c-0.2-1-0.2-5.9-0.2-7.3
		c0-3.4,0.1-5.4,0.1-6.5c0-0.7,0.1-2.1,0.2-2.7c0-0.3-0.1-0.4-0.4-0.4c-0.3,0-0.7,0.1-1.1,0.3c-1.1,0.4-3.8,1.8-4.7,2.1
		c-0.4,0.2-0.6,0.3-0.6,0.8s0,0.5,0.8,0.6c2.1,0.3,2.1,0.9,2.1,5.5c0,2.6,0,6.2-0.4,7.4c-0.3,1-0.8,1.3-2.3,1.6
		c-0.6,0.1-0.7,0.2-0.7,0.7c0,0.4,0.1,0.5,0.4,0.5c0.8,0,3.3-0.1,5.1-0.1c2.2,0,4.2,0.1,4.8,0.1c0.4,0,0.5-0.1,0.5-0.6
		C63.9,57.8,63.8,57.7,63.1,57.7z M58.6,33.4c1.2,0,2.4-1.2,2.4-2.4c0-1.1-1.2-2.3-2.3-2.3c-1,0-2.4,1.2-2.4,2.4
		C56.4,32.2,57.6,33.4,58.6,33.4z M74.3,48c-3.4-1.6-4.6-2.4-4.6-4.1c0-0.8,0.4-2.7,3.1-2.7c2.9,0,4.1,2.1,4.6,3.2
		c0.2,0.5,0.3,0.6,0.5,0.6c0.8,0,0.9-0.1,0.9-0.5c0-0.7-0.2-2.7-0.3-3.7c-0.1-0.7-0.1-0.8-0.4-0.8c-0.2,0-0.5,0.1-0.6,0.1
		c-0.3,0-2.2-0.4-3.8-0.4c-5.8,0-7.3,3.3-7.3,5.3c0,3.2,2.7,4.5,5.2,5.6c2.9,1.4,4.5,2.3,4.5,4.2c0,1.1-0.7,3-3.5,3
		c-1.6,0-4.6-0.7-5.5-4.1c-0.2-0.7-0.2-0.8-0.5-0.8c-0.5,0-0.8,0.1-0.8,0.4c0,0.4,0.2,2,0.2,2.7v2.2c0,0.4,0.1,0.6,0.4,0.6
		c0.2,0,0.5-0.1,0.6-0.1c0.2,0,0.5,0.1,0.9,0.1c0.8,0.1,2.3,0.4,4.2,0.4c2.6,0,7.9-0.8,7.9-5.4C79.7,50.5,76.7,49.1,74.3,48L74.3,48
		z M90.9,48c-3.4-1.6-4.6-2.4-4.6-4.1c0-0.8,0.4-2.7,3.1-2.7c2.9,0,4.1,2.1,4.6,3.2c0.2,0.5,0.3,0.6,0.5,0.6c0.8,0,0.9-0.1,0.9-0.5
		c0-0.7-0.2-2.7-0.3-3.7C95,40.1,95,40,94.7,40c-0.2,0-0.5,0.1-0.6,0.1c-0.3,0-2.2-0.4-3.8-0.4C84.5,39.7,83,43,83,45
		c0,3.2,2.7,4.5,5.2,5.6c2.9,1.4,4.5,2.3,4.5,4.2c0,1.1-0.7,3-3.5,3c-1.6,0-4.6-0.7-5.5-4.1C83.3,53.1,83.3,53,83,53
		c-0.5,0-0.8,0.1-0.8,0.4c0,0.4,0.2,2,0.2,2.7v2.2c0,0.4,0.1,0.6,0.4,0.6c0.2,0,0.5-0.1,0.6-0.1c0.2,0,0.5,0.1,0.9,0.1
		c0.8,0.1,2.3,0.4,4.2,0.4c2.6,0,7.9-0.8,7.9-5.4C96.3,50.5,93.3,49.1,90.9,48L90.9,48z M121.2,51.1c-0.3,0-0.4,0.4-0.5,1
		c-0.5,1.6-1.3,3.1-2.5,3.8c-1.6,0.9-4.6,0.9-7.4,0.9c-1.9,0-2.6,0-2.8-1.1c-0.3-1.3-0.4-6.1-0.4-10.2c0-2.9,0-10,0.4-11.7
		c0.3-1.5,1.1-1.9,3-2.1c0.8-0.1,0.8-0.1,0.8-0.8c0-0.4-0.2-0.5-0.5-0.5c-1.1,0-4,0.2-5.6,0.2c-1.3,0-3.9-0.2-5.3-0.2
		c-0.4,0-0.5,0-0.5,0.7c0,0.4,0.1,0.4,1.1,0.6c2.3,0.4,2.5,1.2,2.5,4.2v6.5c0,3.7,0,9.2-0.3,12c-0.2,1.6-0.4,3-3,3.3
		c-0.7,0.1-0.8,0.1-0.8,0.7c0,0.4,0.1,0.6,0.5,0.6c0.5,0,2.3-0.2,10-0.2c8.3,0,9.1,0.2,10,0.2c0.4,0,0.5-0.4,0.8-1.3
		c0.9-3.4,1.2-5.4,1.2-6.1C122.2,51.3,122.1,51.1,121.2,51.1z M133.9,57.7c-1.7-0.1-2.6-0.2-2.8-1.5c-0.2-1-0.2-5.9-0.2-7.3
		c0-3.4,0.1-5.4,0.1-6.5c0-0.7,0.1-2.1,0.2-2.7c0-0.3-0.1-0.4-0.4-0.4c-0.3,0-0.7,0.1-1.1,0.3c-1.1,0.4-3.8,1.8-4.7,2.1
		c-0.4,0.2-0.6,0.3-0.6,0.8s0,0.5,0.8,0.6c2.1,0.3,2.1,0.9,2.1,5.5c0,2.6,0,6.2-0.4,7.4c-0.3,1-0.8,1.3-2.3,1.6
		c-0.6,0.1-0.7,0.2-0.7,0.7c0,0.4,0.1,0.5,0.4,0.5c0.8,0,3.3-0.1,5.1-0.1c2.2,0,4.2,0.1,4.8,0.1c0.4,0,0.5-0.1,0.5-0.6
		C134.6,57.8,134.5,57.7,133.9,57.7L133.9,57.7z M129.4,33.4c1.2,0,2.4-1.2,2.4-2.4c0-1.1-1.2-2.3-2.3-2.3c-1,0-2.4,1.2-2.4,2.4
		C127.2,32.2,128.4,33.4,129.4,33.4L129.4,33.4z M149.4,40.1h-6.2c0-7,0.2-9.9,5-9.9c2.3,0,3.3,0.7,4,1.2c0.5,0.4,0.8,0.8,1.1,0.8
		c0.4,0,2.4-0.9,2.4-1.9c0-1.2-1.9-2.9-5.3-2.9c-3.6,0-6.8,2.1-8.7,4.5c-2,2.6-2.1,4.3-2.1,8.2l-2.4,1.1c-0.2,0.1-0.2,0.2-0.2,0.7
		c0,0.4,0,0.4,0.3,0.4h2.3c0,3.2,0,9.2-0.1,12.1c-0.1,2.5-0.4,2.9-2.3,3.2c-0.5,0.1-0.6,0.1-0.6,0.7c0,0.3,0,0.6,0.3,0.6
		c0.7,0,2.6-0.1,4.1-0.1c2.1,0,5.4,0.1,6,0.1c0.8,0,0.9-0.1,0.9-0.7c0-0.5,0-0.6-0.6-0.6c-3,0-3.8-0.4-3.9-2.9
		c0-2.7-0.1-8.3-0.1-12.4h6.1c0.6,0,0.6-0.2,0.6-1.1C149.8,40.2,149.8,40.1,149.4,40.1z">
  </path>
  <path d="M166.6,54.8c0-0.2-0.1-0.1-0.3,0c-2.1,1.6-4.3,2-5.7,2c-4.7,0-5.9-4.3-6-7.4c4-0.8,7.9-1.6,12-2.2c0.2,0,0-1.4-0.3-2.5
		c-1.1-3.9-4.5-5-6.6-5c-4.2,0-9,3.8-9,10.8c0,3.4,1.3,8.9,7.8,8.9c3.1,0,6-1.4,7.7-2.9c0.4-0.3,0.5-0.5,0.5-0.8
		C166.7,55.3,166.7,55.1,166.6,54.8L166.6,54.8z M158.4,41.2c2.2,0,4,2.5,4,4.1c0,0.4-0.2,0.8-1.6,1.2c-3.2,0.8-4.4,1.1-6.2,1.4
		C154.6,44.6,155.8,41.2,158.4,41.2z">
  </path>
 </g>
</svg>