<?xml version="1.0" encoding="UTF-8" standalone="no"?><!DOCTYPE svg PUBLIC "-//W3C//DTD SVG 1.1//EN" "http://www.w3.org/Graphics/SVG/1.1/DTD/svg11.dtd"><svg width="100%" height="100%" viewBox="0 0 250 61" version="1.1" xmlns="http://www.w3.org/2000/svg" xmlns:xlink="http://www.w3.org/1999/xlink" xml:space="preserve" xmlns:serif="http://www.serif.com/" style="fill-rule:evenodd;clip-rule:evenodd;stroke-linejoin:round;stroke-miterlimit:2;"><g id="Fond"><rect x="-26.519" y="-26.148" width="302.985" height="112.468" style="fill:none;"/></g><g id="Logotype"><g><g><g><path d="M54.789,31.877c0,-0 0.006,0.005 0.009,0.009c-0.003,-0.004 -0.005,-0.005 -0.009,-0.009Z" style="fill:#fff000;fill-rule:nonzero;"/><path d="M49.474,29.518l-1.495,-0.749l1.206,-1.159c3.019,-2.903 4.68,-6.677 4.68,-10.625c0,-9.955 -7.049,-15.665 -19.34,-15.665l-32.487,0c-0.601,0 -1.087,0.486 -1.087,1.087l0,55.34c0,0.601 0.486,1.087 1.087,1.087l37.064,-0c6.607,-0 11.642,-1.556 14.967,-4.621c2.877,-2.654 4.397,-6.473 4.397,-11.042c0,-5.645 -3.445,-10.877 -8.992,-13.655l-0,0.002l-0,-0Z" style="fill:#fff000;fill-rule:nonzero;"/></g><g><path d="M39.502,18.89c0.277,3.138 -1.628,5.867 -4.252,6.096c-2.624,0.228 -4.974,-2.128 -5.248,-5.267c-0.275,-3.138 1.63,-5.87 4.252,-6.098c2.623,-0.228 4.974,2.131 5.247,5.267" style="fill-rule:nonzero;"/><path d="M20.635,23.311c0.276,3.138 -1.628,5.868 -4.252,6.096c-2.623,0.23 -4.974,-2.127 -5.249,-5.265c-0.274,-3.138 1.632,-5.87 4.255,-6.098c2.622,-0.228 4.973,2.129 5.246,5.267" style="fill-rule:nonzero;"/></g></g><g><path d="M141.883,6.079l-4.996,12.879l-5.007,-12.907l-6.283,0l8.149,21.004l-2.122,5.471l6.283,-0l0.011,-0.028l2.111,-5.443l8.137,-20.976l-6.283,0Z" style="fill-rule:nonzero;"/><path d="M76.837,28.318l0,-27.033l11.192,0c4.607,0 7.591,3.192 7.591,6.721c-0,2.366 -1.247,4.393 -3.4,5.519c3.173,0.975 5.098,3.642 5.098,6.834c0,4.243 -3.775,7.959 -8.573,7.959l-11.91,0l0.002,0Zm5.74,-22.152l-0,5.595l4.317,0c2.077,0 2.984,-1.315 2.984,-2.928c0,-1.389 -0.907,-2.665 -2.984,-2.665l-4.317,0l-0,-0.002Zm-0,10.437l-0,6.834l5.489,0c2.229,0 3.513,-1.613 3.513,-3.492c-0,-1.879 -1.247,-3.342 -3.513,-3.342l-5.489,0Z" style="fill-rule:nonzero;"/><path d="M111.787,49.691l-0,-13.141l6.201,0l-0,13.141c-0,2.394 1.469,3.935 3.794,3.935c2.326,0 3.795,-1.541 3.795,-3.935l-0,-13.141l6.201,0l-0,13.141c-0,5.84 -4.202,9.532 -9.996,9.532c-5.793,0 -9.995,-3.692 -9.995,-9.532Z" style="fill-rule:nonzero;"/><path d="M155.847,45.797l0,13.02l-6.119,0l-0,-12.655c-0,-2.555 -1.551,-4.421 -4.162,-4.421c-2.611,-0 -4.161,1.866 -4.161,4.421l-0,12.655l-6.12,0l-0,-22.267l5.916,0l-0,2.272c1.55,-1.784 3.712,-2.676 5.875,-2.676c5.385,-0 8.771,3.609 8.771,9.653l0,-0.002Z" style="fill-rule:nonzero;"/><path d="M193.013,36.144c5.304,-0 9.017,2.676 9.425,7.22l-6.039,-0c-0.285,-1.501 -1.305,-2.272 -3.386,-2.272c-1.591,-0 -2.57,0.73 -2.57,1.784c-0,3.772 12.321,0.243 12.321,9.167c0,4.217 -3.794,7.178 -9.139,7.178c-5.344,0 -9.139,-2.394 -9.547,-6.815l6.038,-0c0.204,1.298 1.102,1.866 3.509,1.866c2.244,-0 3.182,-0.892 3.182,-2.027c0,-3.448 -12.362,-0.123 -12.362,-9.004c0,-4.015 3.428,-7.097 8.568,-7.097Z" style="fill-rule:nonzero;"/><path d="M213.493,36.144c5.303,-0 9.016,2.676 9.424,7.22l-6.038,-0c-0.286,-1.501 -1.306,-2.272 -3.386,-2.272c-1.592,-0 -2.571,0.73 -2.571,1.784c0,3.772 12.321,0.243 12.321,9.167c0,4.217 -3.794,7.178 -9.138,7.178c-5.345,0 -9.139,-2.394 -9.547,-6.815l6.038,-0c0.204,1.298 1.101,1.866 3.509,1.866c2.243,-0 3.182,-0.892 3.182,-2.027c-0,-3.448 -12.362,-0.123 -12.362,-9.004c-0,-4.015 3.427,-7.097 8.568,-7.097Z" style="fill-rule:nonzero;"/><path d="M76.839,31.784l0,17.907c0,2.353 -1.591,3.935 -4.039,3.935c-0.306,0 -0.599,-0.024 -0.879,-0.072l-0,5.715c0.289,0.021 0.58,0.036 0.879,0.036c5.916,-0 10.24,-3.854 10.24,-9.857l0,-17.664l-6.201,0Z" style="fill-rule:nonzero;"/><path d="M181.876,8.905c-0.08,0.112 -0.164,0.215 -0.238,0.336l0,-3.197l-5.929,-0l0,22.281l6.165,0l-0,-10.166c-0,-3.638 1.967,-5.754 5.606,-5.882l-0,-6.612c-1.052,0.013 -3.783,0.687 -5.606,3.24l0.002,0Z" style="fill-rule:nonzero;"/><path d="M97.485,36.144c-6.936,-0 -11.873,5.435 -11.873,11.518c0,6.773 5.427,11.559 11.873,11.559c5.291,0 9.625,-3.345 11.216,-7.761l-6.6,0c-0.811,1.36 -2.402,2.244 -4.412,2.244c-2.908,0 -5.076,-1.541 -5.705,-4.375l17.251,0c1.075,-7.045 -4.77,-13.187 -11.75,-13.187l-0,0.002Zm-5.404,9.367c0.719,-2.325 2.887,-4.015 5.45,-4.015c2.563,0 4.729,1.69 5.451,4.015l-10.901,0Z" style="fill-rule:nonzero;"/><path d="M170.537,36.144c-6.936,-0 -11.873,5.435 -11.873,11.518c0,6.773 5.427,11.559 11.873,11.559c5.291,0 9.625,-3.345 11.216,-7.761l-6.6,0c-0.811,1.36 -2.402,2.244 -4.412,2.244c-2.908,0 -5.076,-1.541 -5.705,-4.375l17.251,0c1.075,-7.045 -4.77,-13.187 -11.75,-13.187l-0,0.002Zm-5.402,9.367c0.719,-2.325 2.887,-4.015 5.45,-4.015c2.563,0 4.729,1.69 5.45,4.015l-10.9,0Z" style="fill-rule:nonzero;"/><path d="M237.152,36.144c-6.936,-0 -11.872,5.435 -11.872,11.518c-0,6.773 5.426,11.559 11.872,11.559c5.291,0 9.625,-3.345 11.216,-7.761l-6.6,0c-0.811,1.36 -2.402,2.244 -4.412,2.244c-2.908,0 -5.076,-1.541 -5.704,-4.375l17.25,0c1.076,-7.045 -4.77,-13.187 -11.75,-13.187l-0,0.002Zm-5.402,9.367c0.719,-2.325 2.887,-4.015 5.45,-4.015c2.563,0 4.729,1.69 5.451,4.015l-10.901,0Z" style="fill-rule:nonzero;"/><path d="M123.563,6.031l-5.794,-0l0,2.514c-1.876,-1.988 -4.202,-2.92 -6.854,-2.92c-6.316,-0 -11.494,4.938 -11.503,11.54c0.011,6.6 5.187,11.541 11.503,11.541c2.652,-0 4.978,-0.933 6.854,-2.921l0,2.514l5.794,0l-0,-22.268Zm-11.95,17.115c-3.096,-0 -5.864,-2.303 -5.874,-5.983c0.011,-3.679 2.78,-5.982 5.874,-5.982c3.093,-0 5.863,2.303 5.873,5.982c-0.011,3.68 -2.78,5.983 -5.873,5.983Z" style="fill-rule:nonzero;"/><path d="M172.004,6.031l-5.794,-0l0,2.514c-1.876,-1.988 -4.202,-2.92 -6.854,-2.92c-6.316,-0 -11.494,4.938 -11.503,11.54c0.011,6.6 5.187,11.541 11.503,11.541c2.652,-0 4.978,-0.933 6.854,-2.921l0,2.514l5.794,0l-0,-22.268Zm-11.951,17.115c-3.095,-0 -5.863,-2.303 -5.873,-5.983c0.011,-3.679 2.78,-5.982 5.873,-5.982c3.094,-0 5.864,2.303 5.874,5.982c-0.012,3.68 -2.78,5.983 -5.874,5.983Z" style="fill-rule:nonzero;"/><path d="M212.612,1.285l-5.794,0l0,7.259c-1.876,-1.988 -4.202,-2.921 -6.854,-2.921c-6.316,-0 -11.494,4.938 -11.503,11.54c0.011,6.6 5.187,11.541 11.503,11.541c2.652,-0 4.978,-0.933 6.854,-2.921l0,2.515l5.794,-0l-0,-27.013Zm-11.951,21.861c-3.095,-0 -5.864,-2.303 -5.873,-5.983c0.011,-3.679 2.78,-5.982 5.873,-5.982c3.094,-0 5.864,2.303 5.874,5.982c-0.012,3.68 -2.78,5.983 -5.874,5.983Z" style="fill-rule:nonzero;"/></g></g></g></svg>