<svg xmlns="http://www.w3.org/2000/svg" width="217" height="39" viewBox="0 0 217 39" fill="none"><path d="M216 30.3043C215.344 30.3945 214.688 30.4146 214.026 30.4196C213.54 30.4196 213.345 30.2292 213.355 29.7433C213.375 28.4658 213.36 27.1884 213.355 25.9059C213.355 23.0905 213.355 20.2751 213.35 17.4547C213.35 16.5129 213.22 15.5861 212.869 14.6994C212.278 13.2065 211.151 12.3699 209.593 12.1194C205.74 11.5032 202.715 13.8728 202.304 17.7653C202.148 19.2631 202.219 20.756 202.209 22.2539C202.189 24.7086 202.189 27.1683 202.214 29.623C202.219 30.1741 202.003 30.3544 201.492 30.3995C199.739 30.5648 199.659 30.5047 199.659 28.7714C199.659 22.9803 199.659 17.1841 199.659 11.393C199.659 10.4061 199.659 10.3961 200.671 10.4061C202.449 10.4162 202.179 10.2158 202.199 11.9341C202.204 12.4651 202.199 12.9961 202.254 13.5472C202.85 12.5202 203.566 11.6235 204.588 11.0223C207.303 9.42425 210.099 9.5044 212.864 10.7869C214.597 11.5884 215.374 13.1714 215.704 14.9899C215.75 15.2304 215.689 15.531 215.99 15.6712V30.2993L216 30.3043Z" fill="#5D59F5" stroke="#5D59F5" stroke-width="0.5"></path><path d="M71.4526 16.3827C71.3925 19.6389 70.7212 22.7248 68.8626 25.4701C68.6172 25.8308 68.3316 26.1715 68.021 26.4821C67.6954 26.8027 67.6653 27.0381 68.0411 27.3487C68.8877 28.0451 69.7093 28.7815 70.5459 29.4978C71.142 30.0088 71.137 30.0339 70.601 30.61C70.07 31.1811 69.5289 31.7472 69.033 32.3433C68.7675 32.6589 68.5771 32.6339 68.2966 32.3834C67.2846 31.4766 66.2326 30.61 65.2407 29.6782C64.8549 29.3175 64.5694 29.3075 64.0935 29.5129C59.1941 31.6119 54.475 31.4165 50.1517 28.1152C47.3313 25.9611 45.8785 22.9302 45.2824 19.4886C44.6462 15.8216 45.0619 12.2698 46.7652 8.93336C49.3001 3.96883 54.2346 1.61932 59.5197 2.05015C65.5713 2.5461 70.1701 7.13491 71.2071 13.5172C71.3624 14.464 71.4927 15.4158 71.4526 16.3827V16.3827ZM66.5181 16.4778C66.5382 15.1102 66.3578 13.7676 66.0021 12.4501C64.9401 8.52758 62.1648 5.75726 57.581 6.07788C54.8257 6.26824 52.7517 7.55572 51.5043 9.96033C49.4203 13.9831 49.3852 18.1661 51.1787 22.284C52.882 26.2015 56.7093 27.4689 60.3914 26.5071C60.6118 26.447 60.9274 26.437 60.9775 26.1664C61.0176 25.936 60.7471 25.8108 60.5918 25.6705C60.0106 25.1495 59.4145 24.6485 58.8284 24.1325C58.643 23.9722 58.4476 23.8119 58.6931 23.5414C59.3193 22.8401 59.9355 22.1337 60.5567 21.4273C60.7972 21.1518 61.0176 21.1919 61.2731 21.4173C61.9995 22.0736 62.7459 22.7098 63.4723 23.3611C64.2037 24.0173 64.2488 24.0123 64.7898 23.1707C66.1073 21.1268 66.4731 18.8424 66.5231 16.4778H66.5181Z" fill="#5D59F5" stroke="#5D59F5" stroke-width="0.5"></path><path d="M131.658 17.9258C132.019 17.8807 132.134 17.6503 132.294 17.4899C134.499 15.2807 136.713 13.0815 138.892 10.8472C139.318 10.4114 139.759 10.226 140.37 10.241C141.692 10.2811 143.015 10.251 144.332 10.2561C144.483 10.2561 144.688 10.206 144.743 10.4063C144.783 10.5566 144.628 10.6418 144.528 10.737C142.654 12.5404 140.781 14.3439 138.902 16.1424C138.571 16.463 138.241 16.7836 137.88 17.0691C137.449 17.4098 137.429 17.7054 137.745 18.1713C139.588 20.8865 141.397 23.6217 143.215 26.352C143.947 27.4491 144.658 28.5612 145.4 29.6533C145.69 30.0791 145.565 30.1943 145.094 30.1943C143.691 30.1843 142.289 30.1743 140.891 30.1943C140.435 30.1993 140.154 30.024 139.919 29.6483C138.201 26.903 136.472 24.1628 134.744 21.4225C134.103 20.4055 134.238 20.5959 133.522 21.2822C133.407 21.3924 133.311 21.5327 133.176 21.6129C131.798 22.4394 131.513 23.6818 131.633 25.1947C131.748 26.5824 131.658 27.9901 131.658 29.3878C131.658 30.1643 131.633 30.1843 130.837 30.1843C129.855 30.1843 128.873 30.1593 127.891 30.1943C127.33 30.2144 127.165 29.9939 127.17 29.4579C127.19 26.7377 127.18 24.0225 127.18 21.3023C127.18 15.4059 127.18 9.50962 127.18 3.6133C127.18 2.99879 127.492 2.68986 128.116 2.68652C129.038 2.68652 129.96 2.68652 130.882 2.68652C131.623 2.68652 131.658 2.72159 131.658 3.46802C131.658 8.04681 131.658 12.6206 131.658 17.1994V17.9108V17.9258Z" fill="#5D59F5" stroke="#5D59F5" stroke-width="0.5"></path><path d="M87.8744 27.7997C87.1731 28.8768 86.1711 29.5731 85.044 30.1392C82.9449 31.1912 78.4413 30.7954 76.7581 28.8717C75.7662 27.7396 75.2752 26.427 75.0498 24.9793C74.9446 24.308 74.9095 23.6317 74.9145 22.9504C74.9195 18.9928 74.9145 15.0352 74.9145 11.0776C74.9145 10.2861 74.9396 10.261 75.7161 10.261C76.6579 10.261 77.5997 10.261 78.5415 10.261C79.3731 10.261 79.3931 10.276 79.3931 11.0926C79.3931 14.8498 79.3931 18.607 79.3931 22.3642C79.3931 22.9454 79.4482 23.5215 79.5434 24.0926C79.9241 26.3269 81.5122 27.444 83.8417 27.1434C86.3164 26.8228 87.644 25.4351 87.9145 22.9454C87.9996 22.1488 88.0047 21.3523 88.0097 20.5508C88.0097 17.3546 88.0197 14.1535 88.0047 10.9573C88.0047 10.4464 88.165 10.236 88.696 10.251C89.6578 10.2811 90.6197 10.256 91.5815 10.261C92.4883 10.261 92.4933 10.261 92.4933 11.1527C92.4933 15.9069 92.4933 20.666 92.4933 25.4201C92.4933 26.7577 92.4732 28.1003 92.5033 29.4378C92.5133 29.9939 92.348 30.2344 91.7569 30.2093C90.7549 30.1742 89.753 30.1742 88.7511 30.2093C88.185 30.2293 88.0047 29.9989 88.0347 29.4679C88.0648 28.9369 88.0397 28.4008 88.0397 27.8648C87.9896 27.8448 87.9345 27.8247 87.8844 27.8047L87.8744 27.7997Z" fill="#5D59F5" stroke="#5D59F5" stroke-width="0.5"></path><path d="M157.874 30.9257C155.334 30.8556 152.824 30.5901 150.6 29.2175C147.829 27.5092 146.732 24.9142 146.777 21.7531C146.782 21.3774 146.958 21.2021 147.328 21.2021C147.849 21.2021 148.37 21.2171 148.891 21.1971C149.387 21.177 149.563 21.4024 149.558 21.8784C149.558 22.9304 149.758 23.9473 150.239 24.8891C150.91 26.2017 151.917 27.1936 153.305 27.7096C156.125 28.7566 158.991 28.997 161.871 27.935C162.978 27.5242 163.925 26.8679 164.672 25.9462C166.275 23.9724 165.884 21.182 163.795 19.7242C162.758 19.0028 161.586 18.6021 160.378 18.2965C158.184 17.7404 155.985 17.2194 153.791 16.6684C152.839 16.4279 151.897 16.1373 151.025 15.6765C148.265 14.2136 147.363 11.8491 147.794 8.88342C148.26 5.65221 150.304 3.7185 153.295 2.79172C156.25 1.87997 159.251 2.00521 162.122 3.17245C165.308 4.46493 167.151 6.81444 167.402 10.3162C167.432 10.752 167.277 10.8973 166.871 10.8873C166.33 10.8772 165.789 10.8722 165.248 10.8873C164.847 10.9023 164.687 10.727 164.637 10.3312C164.181 6.72928 161.335 4.89576 158.064 4.65029C156.621 4.54008 155.188 4.65029 153.801 5.14624C151.301 6.03294 149.973 8.3524 150.509 10.9424C150.735 12.0345 151.401 12.7959 152.348 13.337C152.979 13.6977 153.67 13.9081 154.372 14.0784C156.666 14.6445 158.966 15.1905 161.25 15.7917C163.294 16.3277 165.278 17.019 166.781 18.6271C168.058 19.9847 168.449 21.6279 168.359 23.4313C168.278 25.0194 167.757 26.4321 166.766 27.6795C165.563 29.1974 163.905 29.9539 162.092 30.4248C160.709 30.7805 159.296 30.9157 157.863 30.9107L157.874 30.9257Z" fill="#5D59F5" stroke="#5D59F5" stroke-width="0.5"></path><path d="M192.871 26.4471C192.27 27.3688 191.618 28.2105 190.727 28.8517C189.279 29.8937 187.666 30.2544 185.902 30.1291C184.505 30.029 183.167 29.7534 181.935 29.0621C180.222 28.0952 179.014 26.6675 178.413 24.819C177.246 21.2321 177.181 17.6652 178.989 14.2336C181.334 9.79511 186.874 8.93846 190.06 10.757C191.218 11.4132 192.109 12.33 192.931 13.4321C192.931 12.6857 192.931 11.9442 192.931 11.1978C192.936 10.4714 192.991 10.4013 193.717 10.4113C195.796 10.4313 195.456 10.1358 195.461 12.1396C195.476 17.7153 195.461 23.291 195.471 28.8667C195.471 30.2744 195.32 31.6521 194.905 33.0047C194.098 35.6147 192.385 37.2829 189.72 37.9041C187.145 38.5002 184.58 38.4351 182.125 37.358C180.206 36.5164 178.879 35.1187 178.438 33.0097C178.278 32.2432 178.383 32.1731 179.149 32.1079C180.211 32.0128 180.998 32.128 181.299 33.4104C181.504 34.2821 182.265 34.8783 183.072 35.279C185.281 36.3661 187.576 36.4212 189.815 35.4744C191.749 34.6578 192.425 32.8744 192.776 30.9607C193.046 29.4779 192.901 27.975 192.871 26.4571V26.4471ZM180.176 20.4305C180.121 21.4074 180.347 22.6398 180.778 23.8371C181.679 26.3168 183.748 27.9049 186.328 27.99C188.968 28.0752 190.877 26.8278 191.979 24.4783C193.417 21.4124 193.287 18.2914 191.849 15.2706C189.79 10.9473 183.828 11.0325 181.519 14.8047C180.512 16.4529 180.176 18.2413 180.176 20.4305V20.4305Z" fill="#5D59F5" stroke="#5D59F5" stroke-width="0.5"></path><path d="M121.489 16.9987C120.948 16.9987 120.407 16.9837 119.866 16.9987C119.485 17.0087 119.27 16.8785 119.194 16.4877C118.683 13.9679 116.349 12.961 113.854 13.3467C111.89 13.6473 110.648 14.8396 110.007 16.643C109.155 19.0426 109.16 21.4723 110.022 23.8669C110.924 26.3667 113.183 27.5991 115.763 27.018C117.591 26.6072 118.618 25.3497 119.084 23.5914C119.355 22.5794 119.154 22.6195 120.347 22.6195C121.268 22.6195 122.19 22.6345 123.112 22.6195C123.633 22.6095 123.788 22.8249 123.688 23.3158C122.791 27.7844 119.851 30.6048 115.122 30.695C113.504 30.7251 111.926 30.5848 110.423 29.9185C107.773 28.7413 106.094 26.7074 105.373 23.9471C104.586 20.9263 104.712 17.9205 105.974 15.0249C106.946 12.7906 108.589 11.1725 110.879 10.356C114.115 9.20375 117.311 9.39913 120.322 11.1174C122.245 12.2145 123.307 13.9629 123.688 16.122C123.823 16.8785 123.713 16.9887 122.927 16.9937C122.446 16.9937 121.965 16.9937 121.484 16.9937L121.489 16.9987Z" fill="#5D59F5" stroke="#5D59F5" stroke-width="0.5"></path><path d="M101.385 20.2352C101.385 23.2309 101.385 26.2267 101.385 29.2174C101.385 29.8653 101.051 30.1909 100.383 30.1943C99.4812 30.1943 98.5845 30.1943 97.6827 30.1943C96.9413 30.1943 96.9113 30.1642 96.9113 29.4078C96.9113 24.0775 96.9113 18.7473 96.9113 13.4171C96.9113 12.6005 96.9313 11.7789 96.9063 10.9624C96.8912 10.4614 97.0465 10.231 97.5876 10.246C98.6245 10.276 99.6665 10.276 100.709 10.246C101.24 10.231 101.4 10.4414 101.4 10.9523C101.385 14.0483 101.39 17.1392 101.395 20.2352H101.385Z" fill="#5D59F5" stroke="#5D59F5" stroke-width="0.5"></path><path d="M171.765 20.4153C171.765 17.3394 171.765 14.2685 171.765 11.1926C171.765 10.4412 171.8 10.4111 172.537 10.4061C172.957 10.4061 173.378 10.4061 173.799 10.4111C174.145 10.4111 174.315 10.5815 174.31 10.9321C174.31 11.0724 174.31 11.2127 174.31 11.3529C174.31 17.3996 174.31 23.4512 174.31 29.4978C174.31 30.3845 174.285 30.4145 173.408 30.4145C171.5 30.4045 171.775 30.5949 171.765 28.8014C171.75 26.0061 171.765 23.2107 171.765 20.4153V20.4153Z" fill="#5D59F5" stroke="#5D59F5" stroke-width="0.5"></path><path d="M99.0807 6.92463C98.5396 6.92463 98.0036 6.91962 97.4626 6.92463C97.0969 6.92964 96.9065 6.79438 96.9065 6.40363C96.9165 5.3466 96.9115 4.28957 96.9065 3.23755C96.9065 2.86684 97.0618 2.69151 97.4425 2.69652C98.5797 2.70653 99.7169 2.70153 100.854 2.69652C101.195 2.69652 101.38 2.82677 101.375 3.18746C101.375 4.26453 101.375 5.33658 101.375 6.41365C101.375 6.76432 101.22 6.92463 100.869 6.91962C100.268 6.91962 99.6718 6.91962 99.0707 6.91962L99.0807 6.92463Z" fill="#5D59F5" stroke="#5D59F5" stroke-width="0.5"></path><path d="M171.765 4.77546C171.765 4.33461 171.785 3.89878 171.765 3.45793C171.74 2.98703 171.956 2.81169 172.407 2.83173C172.868 2.85177 173.323 2.84175 173.784 2.83173C174.12 2.83173 174.31 2.95697 174.31 3.31766C174.31 4.31457 174.31 5.31149 174.31 6.3084C174.31 6.619 174.19 6.80436 173.854 6.80436C173.313 6.80436 172.777 6.80436 172.236 6.80436C171.911 6.80436 171.77 6.63403 171.77 6.31842C171.77 5.80243 171.77 5.28143 171.77 4.76544L171.765 4.77546Z" fill="#5D59F5" stroke="#5D59F5" stroke-width="0.5"></path><path d="M18.2217 0C19.0982 0.206463 19.9941 0.311642 20.8628 0.572642C24.0338 1.51146 26.6321 3.28782 28.7474 5.81601C30.1809 7.52615 31.3651 9.36483 32.0001 11.5268C32.3624 12.7578 32.5533 14.0122 32.6156 15.286C32.7208 17.3584 32.5338 19.4153 32.2261 21.4604C32.0196 22.8355 32.2455 24.1522 32.6585 25.4533C33.1454 26.996 33.8193 28.4685 34.4037 29.976C34.7776 30.9499 35.1243 31.9316 34.9568 33.0067C34.6335 35.0558 32.1754 36.5166 30.2199 35.8271C29.172 35.457 28.2994 34.8065 27.4463 34.1287C25.3388 32.4575 22.9313 31.5576 20.259 31.4758C19.254 31.4446 18.2372 31.4758 17.2322 31.4252C14.4936 31.2888 11.8057 30.8759 9.33208 29.6021C6.40265 28.0945 4.2679 25.7689 2.66295 22.9407C1.72802 21.3007 1.18265 19.5243 0.92165 17.6584C0.906068 17.5532 0.867112 17.448 0.839844 17.3468C0.839844 16.1664 0.839844 14.9861 0.839844 13.8018C0.871008 13.6655 0.906068 13.533 0.929441 13.3967C2.03966 7.03141 5.67419 2.80477 11.7629 0.666134C12.7056 0.335015 13.699 0.222045 14.6689 0H18.2217ZM26.7178 16.3612C26.7723 13.8486 26.2503 11.4996 24.5597 9.48559C22.0626 6.5211 18.9112 5.15377 15.0585 5.64461C9.94757 6.29516 6.0092 10.7672 6.45719 16.0184C6.78441 19.8594 8.7906 22.6057 12.2576 24.2418C14.0418 25.0833 16.0012 25.2663 17.9568 25.2625C19.1605 25.2625 20.3019 25.4923 21.4082 25.9597C22.1444 26.2675 22.8262 26.6687 23.4962 27.0933C24.1545 27.5102 24.8246 27.9075 25.5959 28.0867C26.6009 28.3243 27.4696 27.9426 27.9605 27.0349C28.2331 26.5363 28.2838 26.0026 28.1474 25.4533C27.941 24.6041 27.5748 23.8133 27.271 22.9953C26.8035 21.7331 26.4841 20.4359 26.5659 19.0803C26.6204 18.1804 26.7412 17.2883 26.7178 16.3573V16.3612Z" fill="#5D59F5"></path><path d="M16.8429 22.1149C13.0409 22.1149 9.88941 19.0374 9.94006 15.251C9.99459 11.0477 13.3759 8.3715 16.8468 8.37929C20.6605 8.38708 23.7458 11.4568 23.7419 15.251C23.7419 19.053 20.6644 22.111 16.8429 22.1149V22.1149ZM15.7132 13.5564C15.7132 14.2849 15.6937 15.0134 15.7171 15.7418C15.7405 16.5209 16.3794 16.93 17.0805 16.5833C18.3193 15.9717 19.5464 15.3289 20.7618 14.6745C21.2955 14.3862 21.4396 13.8681 21.1903 13.4162C20.941 12.9643 20.4502 12.8475 19.8892 13.1046C19.3127 13.3733 18.7361 13.646 18.1596 13.9187C17.5519 14.207 17.5402 14.2031 17.5402 13.5097C17.5402 12.828 17.5558 12.1424 17.5246 11.4606C17.4974 10.8568 17.1156 10.4673 16.617 10.4712C16.1028 10.4712 15.7171 10.9036 15.7093 11.5035C15.7015 12.1852 15.7093 12.8669 15.7093 13.5525L15.7132 13.5564Z" fill="#5D59F5"></path></svg>